<?xml version="1.0" standalone="no"?>
<!DOCTYPE svg PUBLIC "-//W3C//DTD SVG 20010904//EN"
 "http://www.w3.org/TR/2001/REC-SVG-20010904/DTD/svg10.dtd">
<svg version="1.0" xmlns="http://www.w3.org/2000/svg"
 width="700.000000pt" height="700.000000pt" viewBox="0 0 700.000000 700.000000"
 preserveAspectRatio="xMidYMid meet">
<metadata>
Created by potrace 1.14, written by Peter Selinger 2001-2017
</metadata>
<g transform="translate(0.000000,700.000000) scale(0.100000,-0.100000)"
fill="#000000" stroke="none">
<path d="M3238 6755 c-2 -2 -23 -6 -47 -9 -53 -7 -373 -72 -456 -92 -93 -23
-288 -101 -373 -150 -42 -24 -93 -47 -113 -50 -23 -4 -51 -20 -75 -43 -35 -34
-213 -187 -273 -236 -49 -40 -258 -251 -283 -285 -13 -19 -44 -69 -68 -110
-24 -41 -70 -115 -103 -164 -71 -107 -93 -153 -146 -322 -90 -281 -157 -601
-176 -849 -7 -90 -7 -370 0 -429 18 -153 51 -254 151 -461 128 -267 300 -541
404 -645 77 -77 298 -245 423 -322 43 -26 84 -54 91 -60 42 -44 193 -253 219
-303 50 -100 257 -566 282 -635 12 -36 32 -85 43 -110 25 -59 22 -110 -11
-158 -15 -21 -27 -42 -27 -48 0 -5 14 -29 30 -53 42 -62 48 -106 20 -136 -30
-32 -21 -77 22 -122 38 -40 42 -87 10 -128 -29 -37 -27 -61 8 -114 36 -52 37
-68 9 -120 -30 -58 -23 -93 21 -104 39 -10 64 -27 194 -137 61 -51 103 -96
134 -145 25 -38 50 -73 56 -78 6 -4 40 -4 76 -1 36 4 126 7 202 8 95 1 141 6
152 15 8 7 25 38 36 69 37 102 40 105 101 117 12 2 31 14 41 25 23 24 106 67
143 74 37 7 73 42 77 75 2 14 -4 43 -14 63 -22 46 -16 64 33 89 49 24 58 56
33 111 -25 56 -21 75 27 124 52 53 57 95 16 144 -39 46 -37 93 6 134 19 17 46
48 61 68 l27 37 -43 27 c-24 15 -46 31 -49 37 -14 20 4 73 36 109 20 21 36 52
39 72 3 20 9 52 12 72 15 95 130 412 184 504 76 130 136 195 374 404 93 82
176 156 185 165 9 9 41 36 70 61 128 107 149 125 196 170 211 201 398 487 530
810 77 188 90 257 100 545 3 88 8 174 10 190 2 17 5 95 6 175 3 239 -37 393
-173 665 -122 245 -239 412 -419 600 -231 242 -323 321 -436 380 -32 16 -128
71 -213 123 -274 165 -533 275 -750 316 -100 19 -142 26 -195 32 -60 6 -441
14 -447 9z m437 -70 c300 -64 525 -127 637 -178 78 -36 399 -217 523 -295 160
-101 315 -245 517 -479 130 -151 236 -336 340 -593 36 -89 49 -133 54 -195 3
-44 9 -89 11 -100 3 -11 6 -76 8 -145 1 -69 6 -145 9 -170 4 -25 9 -126 11
-225 2 -99 6 -202 8 -230 4 -55 -17 -149 -65 -290 -35 -100 -43 -113 -74 -125
-15 -6 -32 -36 -59 -107 -42 -110 -127 -277 -176 -350 -34 -50 -45 -61 -146
-153 -33 -30 -103 -96 -155 -146 -52 -49 -135 -123 -184 -164 -132 -110 -317
-282 -441 -410 -112 -116 -195 -268 -264 -487 -27 -85 -49 -135 -64 -149 -42
-38 -286 -71 -552 -75 -40 0 -77 2 -83 6 -10 6 -10 219 -1 707 l1 37 35 -15
c67 -28 72 -8 5 26 -31 16 -37 24 -36 49 1 35 0 35 91 -43 80 -67 89 -81 51
-74 -31 6 -32 4 -7 -31 31 -44 43 -107 36 -190 -4 -42 -8 -78 -10 -81 -1 -3
-6 -39 -9 -80 -4 -41 -9 -93 -12 -115 -18 -154 -10 -200 26 -156 11 13 20 35
21 50 0 14 2 44 4 66 2 22 6 78 9 125 4 47 9 121 13 165 13 150 10 237 -11
277 -19 40 -83 108 -101 108 -5 0 -20 9 -33 18 l-24 18 121 103 c72 61 124
113 127 128 12 47 30 48 177 13 131 -32 263 -22 290 21 23 36 -1 65 -125 156
-169 122 -242 173 -317 218 l-65 39 35 25 c19 14 55 46 82 72 41 40 47 51 47
87 0 59 -36 96 -144 149 -102 49 -116 59 -84 59 26 1 110 11 147 19 178 35
275 160 197 253 -40 47 -172 110 -266 127 -19 3 -44 8 -55 10 -11 2 -37 4 -57
4 -21 1 -38 4 -38 9 0 10 166 92 186 92 17 0 512 -264 579 -309 32 -22 40 -33
39 -57 0 -16 -4 -37 -9 -47 -7 -16 -5 -16 18 -6 36 17 41 47 13 90 -37 55
-125 109 -457 275 -128 64 -149 78 -149 98 0 13 7 29 15 36 9 7 15 29 15 52 0
31 -7 45 -32 70 -40 37 -149 108 -203 132 -53 24 -65 41 -65 92 0 49 -11 44
155 79 199 43 217 45 264 39 41 -5 44 -4 27 8 -17 14 -17 16 14 41 17 15 42
27 56 27 25 0 418 -194 444 -219 13 -13 11 -14 -18 -8 -43 9 -39 -13 3 -25 62
-16 95 -18 95 -5 -1 33 -24 47 -403 242 -130 68 -140 75 -167 122 -32 56 -92
112 -152 142 l-40 20 78 23 c99 29 144 69 144 128 0 67 -19 98 -95 156 -67 51
-113 73 -232 114 -137 47 -160 60 -171 103 -19 68 32 75 248 36 331 -60 464
-68 517 -34 27 18 30 57 7 95 l-15 25 5 -25 c9 -40 -4 -68 -34 -79 -16 -5 -30
-8 -32 -6 -1 1 -38 5 -81 9 -43 4 -126 13 -185 21 -59 8 -129 17 -157 21 -65
9 -88 20 -60 29 120 40 178 81 215 153 19 36 22 54 17 105 -3 34 -8 70 -12 81
-5 10 61 -52 145 -138 84 -86 158 -156 163 -156 17 0 -25 54 -98 125 -85 83
-166 179 -224 263 -41 61 -68 81 -56 42 9 -27 3 -26 -54 15 -105 76 -216 105
-384 100 -67 -2 -144 -6 -172 -9 -27 -3 -84 -8 -125 -11 -166 -15 -300 -42
-342 -71 -42 -29 -108 -101 -108 -117 0 -12 -35 -5 -140 27 -105 32 -118 32
-131 3 -21 -46 77 -246 168 -342 21 -22 77 -73 126 -113 48 -40 87 -74 87 -75
0 -1 -11 -29 -25 -62 -29 -72 -31 -118 -6 -165 25 -48 67 -69 273 -136 121
-40 190 -68 211 -86 l32 -27 -40 -2 c-87 -4 -119 4 -336 75 -554 183 -586 191
-621 164 -35 -27 -24 -77 37 -168 59 -88 109 -139 245 -251 178 -148 255 -203
344 -250 l83 -43 -60 -79 c-99 -130 -91 -176 48 -267 36 -24 64 -44 62 -46 -2
-2 -109 32 -239 76 -251 84 -347 108 -469 117 -84 6 -88 4 -94 -54 -7 -79 66
-201 215 -357 84 -88 216 -197 268 -222 20 -9 67 -42 106 -74 39 -31 90 -69
114 -85 23 -15 42 -33 41 -39 0 -6 -19 -27 -43 -46 -57 -47 -96 -98 -96 -127
0 -30 63 -99 114 -125 22 -11 90 -34 150 -50 60 -16 121 -35 135 -43 25 -13
25 -13 -29 -30 -113 -34 -141 -32 -315 23 -302 96 -343 104 -383 76 -66 -46
20 -257 151 -365 63 -53 252 -176 327 -213 136 -68 174 -79 234 -69 50 9 55 8
60 -10 8 -33 -13 -60 -97 -122 l-82 -60 4 -45 c9 -101 5 -213 -14 -355 -2 -16
-7 -68 -10 -115 -13 -183 -13 -182 -104 -175 -36 3 -77 7 -91 10 -55 9 -98 14
-150 20 -92 10 -116 22 -148 73 -41 68 -75 143 -117 262 -44 125 -139 328
-201 426 -53 86 -147 176 -233 224 -102 57 -384 271 -372 283 12 12 -60 119
-196 290 -128 160 -266 403 -275 485 -4 27 -14 51 -30 67 -19 19 -29 49 -48
142 -12 65 -26 136 -29 158 -8 53 -7 220 3 325 4 47 9 114 12 150 18 270 21
290 80 495 104 360 119 397 266 632 94 149 119 180 311 385 156 166 206 207
397 321 213 127 397 206 536 231 10 2 37 7 59 11 68 12 78 14 135 19 162 16
187 19 203 28 44 23 158 35 302 33 83 -2 164 -6 180 -10z m-50 -605 c22 -13
49 -26 60 -28 11 -1 67 -17 125 -35 104 -32 105 -33 127 -77 44 -91 57 -145
44 -177 -22 -53 -82 -108 -130 -118 -11 -3 -30 -7 -42 -10 -11 -2 -28 -6 -37
-9 -32 -9 -107 -19 -136 -17 -40 2 -51 13 -87 87 -37 79 -64 97 -91 63 -11
-13 -31 -37 -46 -54 -39 -43 -51 -66 -52 -96 0 -53 -20 -55 -139 -10 -61 23
-113 41 -116 41 -15 0 -131 63 -165 90 -37 29 -81 113 -67 127 4 3 85 -25 182
-62 96 -38 179 -65 183 -60 4 4 3 9 -3 12 -129 50 -351 155 -353 166 -5 25 45
92 88 116 68 38 140 55 286 67 43 3 80 7 82 9 1 1 58 2 125 1 111 -1 125 -3
162 -26z m-920 -151 c48 -18 51 -21 51 -54 0 -48 47 -111 116 -158 31 -21 117
-68 191 -106 l135 -69 -124 -31 c-68 -17 -131 -31 -140 -31 -40 0 -203 148
-282 255 -59 80 -80 123 -88 180 l-6 48 48 -8 c27 -4 71 -15 99 -26z m803
-320 c36 -14 16 -29 -39 -29 -42 0 -49 3 -49 19 0 31 23 34 88 10z m32 -105
c7 -7 10 -19 8 -27 -2 -12 -11 -11 -48 5 -41 18 -43 21 -27 33 20 14 51 10 67
-11z m-190 -170 l0 -165 -105 72 c-58 39 -108 70 -110 67 -2 -2 28 -29 68 -61
99 -77 170 -149 156 -158 -23 -14 -212 38 -319 87 -82 38 -105 56 -126 97 -13
25 -13 32 5 72 24 55 43 57 118 15 29 -16 55 -30 59 -30 3 0 -18 22 -47 49
l-53 48 30 16 c28 14 138 37 256 53 24 4 45 8 47 10 16 15 21 -29 21 -172z
m172 91 c9 -3 20 -14 24 -23 8 -19 15 -266 8 -299 -5 -28 -25 -29 -81 -4 -64
30 -72 53 -71 223 l1 146 51 -18 c28 -10 59 -21 68 -25z m317 -127 c145 -61
211 -115 211 -172 0 -52 -30 -71 -155 -97 -68 -15 -230 -20 -259 -9 -23 8 -23
9 -25 189 l-1 181 52 -21 c29 -11 109 -43 177 -71z m-1329 -128 c136 -33 223
-58 424 -123 168 -53 187 -61 171 -73 -11 -8 -26 -14 -34 -14 -14 0 -92 -26
-171 -58 -49 -19 -63 -46 -64 -121 -1 -82 6 -83 -132 20 -118 88 -221 199
-266 286 -48 92 -54 112 -31 107 10 -2 56 -13 103 -24z m3284 -266 c18 -92 19
-104 8 -104 -7 0 -20 52 -38 154 -6 38 -7 39 -5 51 3 22 20 -25 35 -101z
m-2249 -140 c1 -91 -2 -167 -6 -170 -15 -9 -104 -14 -117 -6 -18 12 -24 227
-7 268 8 19 9 37 4 45 -7 11 5 16 54 25 34 5 64 9 66 7 3 -2 5 -78 6 -169z
m230 115 c124 -61 255 -137 255 -148 0 -27 -70 -77 -120 -85 -19 -3 -71 -12
-115 -21 -95 -18 -195 -26 -196 -17 -4 24 -3 305 1 311 8 13 34 20 55 14 11
-2 65 -27 120 -54z m79 26 c18 -8 52 -32 76 -55 l45 -42 -65 35 c-36 20 -85
47 -110 62 -44 26 -45 26 -11 20 19 -4 48 -13 65 -20z m-525 -4 c11 -7 21 -17
22 -24 0 -7 1 -77 2 -156 2 -163 4 -159 -86 -182 -72 -18 -136 0 -257 73 -109
65 -120 79 -120 151 0 84 36 114 165 140 79 16 242 15 274 -2z m211 -410 l0
-48 -52 5 c-65 6 -77 14 -70 50 7 35 17 42 75 42 l47 0 0 -49z m-323 -69 c26
-15 61 -34 77 -42 16 -8 40 -32 54 -52 24 -36 24 -42 17 -135 -4 -54 -8 -104
-8 -110 -1 -18 0 -18 -75 23 -199 109 -250 143 -257 174 -12 53 75 170 125
170 11 0 41 -12 67 -28z m106 9 c23 -9 43 -38 33 -48 -5 -5 -96 46 -96 53 0 7
38 4 63 -5z m174 -37 l54 -16 -5 -36 c-3 -21 -5 -45 -6 -55 0 -16 -5 -16 -50
9 -57 31 -69 43 -75 74 -9 44 2 47 82 24z m218 -64 c54 -24 114 -79 119 -110
2 -14 -1 -37 -6 -52 -12 -35 -42 -31 -136 16 -65 33 -107 70 -97 86 2 3 5 25
6 48 l3 42 35 -6 c20 -4 54 -15 76 -24z m-1219 -54 c54 -7 702 -220 782 -256
63 -29 72 -36 50 -37 -16 0 -93 -11 -168 -23 -116 -18 -232 -81 -250 -136 -22
-64 1 -87 202 -212 59 -37 108 -70 108 -75 0 -17 -66 -47 -90 -42 -14 3 -69
36 -122 73 -54 37 -117 78 -142 92 -25 14 -64 43 -88 65 -24 22 -73 65 -108
95 -36 30 -85 75 -109 100 -46 47 -141 171 -159 205 -11 22 -52 144 -52 155 0
8 74 5 146 -4z m996 -17 c39 -28 58 -69 58 -127 0 -74 -10 -110 -31 -115 -29
-8 -87 11 -98 32 -6 10 -10 68 -10 130 l-1 113 27 -7 c15 -3 39 -15 55 -26z
m265 -152 c-3 -11 -146 -71 -152 -65 -5 4 -8 90 -6 134 1 20 6 19 81 -20 44
-23 79 -45 77 -49z m-238 -193 c12 -11 15 -48 15 -171 l1 -158 -31 -3 c-17 -2
-35 3 -41 10 -6 7 -14 53 -18 103 -4 49 -8 92 -10 95 -7 11 -15 132 -10 140 8
13 77 2 94 -16z m-154 -8 c7 -9 16 -51 20 -94 5 -42 9 -84 10 -92 2 -8 6 -45
10 -81 l6 -66 -33 -7 c-18 -3 -45 -4 -59 -1 -33 6 -307 150 -332 174 -22 21
-25 77 -6 96 22 22 159 73 214 80 28 4 51 8 52 9 2 2 26 2 54 1 36 -1 56 -7
64 -19z m491 -28 c139 -55 162 -70 169 -111 14 -71 -42 -130 -132 -142 -32 -5
-65 -9 -73 -10 -8 -1 -44 -5 -80 -9 -36 -4 -78 -9 -94 -12 -15 -3 -37 -2 -48
2 -19 6 -19 12 -13 152 4 81 8 148 9 149 2 2 36 -8 77 -22 94 -32 122 -27 47
9 -128 61 -17 56 138 -6z m-491 -374 c28 -11 67 -136 45 -149 -10 -6 -200 85
-200 97 0 4 15 15 33 25 55 31 91 38 122 27z m335 -25 c81 -15 116 -30 159
-67 27 -22 34 -36 34 -62 0 -39 -33 -71 -122 -118 -55 -29 -57 -29 -91 -13
-98 45 -125 88 -115 187 6 61 28 97 54 90 9 -3 45 -10 81 -17z m-206 -5 c22
-21 29 -55 22 -105 -8 -58 -22 -70 -46 -41 -15 19 -19 38 -18 93 2 72 11 84
42 53z m-199 -103 l110 -56 0 -82 c0 -45 -5 -87 -10 -92 -23 -23 -313 77 -367
126 -10 9 -18 26 -18 39 0 49 111 140 155 127 11 -3 70 -31 130 -62z m220
-169 c0 -46 -19 -82 -42 -82 -10 0 -15 148 -6 163 3 5 15 0 26 -12 16 -16 22
-34 22 -69z m104 16 c23 -12 40 -26 38 -32 -2 -5 -21 -14 -43 -21 l-41 -12 1
44 c0 23 1 43 2 43 1 0 21 -10 43 -22z m181 -98 c57 -29 267 -157 309 -188 60
-44 139 -122 144 -142 7 -28 -36 -41 -127 -41 -83 1 -95 2 -181 22 -73 17 -82
24 -114 88 -33 64 -61 89 -173 150 -43 24 -78 46 -78 50 0 4 12 19 28 33 53
49 128 61 192 28z m-975 -15 c38 -8 117 -34 176 -57 l107 -42 -44 -39 c-24
-21 -44 -45 -44 -52 0 -31 183 -238 267 -303 41 -31 42 -49 2 -66 -29 -12 -38
-11 -93 11 -229 93 -469 277 -531 409 -34 71 -47 134 -32 152 13 16 73 12 192
-13z m673 -84 c16 -10 13 -113 -3 -118 -25 -8 -47 24 -47 65 1 60 16 75 50 53z
m-100 -50 c3 -41 2 -42 -20 -36 -73 23 -131 49 -118 53 34 12 116 30 125 28 6
-2 11 -22 13 -45z m238 -10 c69 -40 167 -141 136 -141 -28 0 -197 51 -204 62
-5 7 -6 31 -4 53 3 22 5 43 5 48 1 12 14 8 67 -22z m-310 -41 c68 -33 81 -54
88 -132 4 -53 -8 -139 -25 -179 -11 -27 -11 -27 -137 103 -70 71 -132 139
-139 151 -21 38 -15 62 20 80 44 23 117 15 193 -23z m166 -232 c-1 -89 -5
-164 -8 -167 -3 -3 -12 3 -21 14 -12 17 -14 45 -9 169 7 156 11 175 30 156 7
-8 10 -62 8 -172z m173 126 c62 -16 106 -32 109 -41 14 -36 -76 -141 -167
-193 -29 -16 -56 -30 -60 -30 -5 0 -6 55 -1 123 4 67 7 132 8 145 0 12 1 22 3
22 2 0 50 -12 108 -26z m-255 -802 c0 -418 6 -395 -99 -391 -70 3 -90 13 -92
49 -2 29 11 198 16 220 2 8 7 51 11 95 3 44 8 82 9 85 2 3 6 48 10 100 8 126
15 141 78 173 29 14 55 26 60 26 4 1 7 -160 7 -357z m62 205 c1 -53 -1 -100
-5 -103 -4 -4 -7 41 -7 101 0 133 10 135 12 2z m-5 -387 c1 -11 -2 -20 -5 -20
-4 0 -8 9 -9 20 -1 11 2 20 5 20 4 0 8 -9 9 -20z m-2 -105 c0 -24 -2 -41 -5
-39 -3 3 -5 25 -5 49 0 24 2 41 5 39 3 -3 5 -25 5 -49z m689 -163 c-2 -20 -9
-42 -16 -49 -17 -17 -172 -51 -308 -68 -142 -17 -695 -5 -825 19 -11 2 -42 7
-68 10 -124 18 -156 31 -172 69 -21 51 -12 59 64 52 36 -4 77 -8 91 -10 139
-23 783 -23 955 -1 17 3 66 7 110 11 44 4 98 10 120 14 47 8 54 1 49 -47z
m-1209 -141 c208 -26 298 -32 560 -36 121 -1 249 1 285 5 36 5 88 11 115 15
162 20 166 19 169 -44 1 -22 2 -41 1 -41 -1 0 -25 -4 -53 -10 -119 -22 -327
-29 -532 -16 -63 4 -151 9 -195 11 -160 8 -331 17 -398 20 -38 2 -70 5 -72 7
-3 3 -8 85 -6 100 1 4 11 5 24 3 12 -2 58 -8 102 -14z m170 -156 c22 -2 78 -6
125 -10 47 -4 227 -8 400 -9 251 -2 335 1 413 14 53 8 97 12 97 9 0 -10 -28
-37 -49 -49 -33 -17 -172 -24 -476 -25 -287 0 -392 5 -570 25 -44 5 -100 12
-124 14 -126 14 -143 20 -123 40 6 7 164 2 307 -9z m-183 -85 c128 -17 149
-19 328 -26 192 -8 569 -10 695 -3 l80 4 -2 -30 c-2 -16 -3 -45 -3 -63 0 -18
-6 -35 -13 -37 -36 -12 -243 -28 -372 -28 -74 0 -286 11 -326 18 -13 2 -73 9
-134 15 -119 11 -261 35 -312 51 -35 11 -43 25 -43 75 0 39 -2 38 102 24z m33
-174 c153 -27 200 -33 319 -42 44 -3 87 -7 96 -9 41 -8 235 -18 332 -18 148 1
238 11 311 33 77 24 80 24 65 1 -7 -11 -30 -28 -52 -38 -35 -16 -68 -18 -241
-17 -190 0 -442 9 -550 19 -65 6 -234 25 -261 30 -12 2 -48 7 -80 10 -62 8
-114 29 -114 45 0 14 18 13 175 -14z m40 -101 c33 -3 76 -8 95 -10 46 -5 180
-14 310 -20 58 -3 139 -8 180 -12 83 -7 245 -10 330 -4 82 5 92 3 88 -16 -2
-11 -14 -18 -33 -19 -224 -14 -616 -19 -700 -10 -214 24 -405 68 -405 93 0 11
9 13 38 9 20 -3 64 -8 97 -11z m-80 -119 c50 -4 115 -9 145 -11 168 -14 288
-18 600 -20 393 -3 363 -2 356 -14 -34 -54 -680 -61 -986 -11 -30 5 -71 12
-90 15 -60 10 -110 28 -123 44 -6 8 -7 12 -2 9 6 -3 51 -9 100 -12z m65 -101
c74 -8 129 -15 165 -20 158 -23 528 -24 765 -3 19 2 25 -5 27 -31 1 -16 -3
-31 -10 -33 -7 -3 -57 -6 -112 -7 -55 -2 -118 -5 -140 -7 -55 -5 -334 -5 -420
0 -332 19 -355 21 -366 33 -4 5 -12 25 -17 46 l-11 38 32 -5 c18 -3 57 -8 87
-11z m545 -151 c160 -4 319 -7 355 -8 52 -1 65 -4 68 -18 2 -9 -5 -21 -16 -27
-26 -14 -496 -5 -737 15 -266 21 -325 29 -325 46 0 6 65 8 183 4 100 -3 313
-8 472 -12z m-405 -79 c58 -4 125 -9 150 -10 25 -2 77 -6 115 -9 39 -4 95 -8
125 -10 160 -11 236 -19 243 -26 16 -14 -109 -22 -333 -21 -251 2 -325 10
-406 46 -55 24 -66 45 -22 40 13 -1 70 -6 128 -10z m295 -140 c-54 -18 -90
-18 -105 0 -11 13 -3 15 66 14 l79 -1 -40 -13z m211 -10 c6 -25 -32 -115 -48
-115 -16 0 -8 103 9 122 22 24 31 23 39 -7z"/>
<path d="M1726 5628 c-33 -19 -130 -255 -167 -408 -16 -67 -13 -53 -23 -125
-4 -32 -9 -66 -11 -75 -3 -13 -5 -40 -20 -180 -20 -193 -25 -359 -14 -440 17
-125 20 -146 34 -226 8 -45 17 -103 20 -130 14 -107 73 -301 119 -393 13 -25
38 -86 55 -136 50 -142 218 -410 316 -505 78 -75 78 -75 102 -88 64 -34 53 8
-55 221 -96 188 -195 423 -246 582 -43 135 -166 658 -183 782 -16 114 -7 601
12 688 3 11 7 33 9 49 5 29 36 140 63 229 8 26 26 61 39 76 27 32 24 52 -10
74 -16 11 -27 12 -40 5z m-91 -360 c-6 -49 -19 -78 -29 -67 -7 8 17 119 27
119 5 0 6 -22 2 -52z m-40 -400 c0 -179 6 -296 20 -378 2 -14 7 -43 10 -65 3
-23 7 -52 10 -65 3 -14 10 -52 16 -85 23 -131 121 -494 183 -678 34 -101 51
-144 128 -307 46 -98 80 -191 73 -198 -7 -7 0 -17 -107 153 -134 211 -203 352
-272 558 -24 72 -61 205 -71 258 -5 25 -22 118 -30 166 -19 115 -28 507 -13
603 15 96 46 240 52 240 0 0 1 -91 1 -202z"/>
<path d="M4994 5548 c3 -24 21 -106 41 -183 20 -77 38 -149 41 -160 7 -35 33
-247 40 -330 3 -44 8 -89 11 -100 5 -25 4 -346 -2 -440 -2 -38 -7 -117 -10
-175 -3 -58 -8 -118 -10 -135 -2 -16 -7 -57 -10 -90 -8 -77 -15 -126 -20 -145
-2 -8 -7 -31 -10 -50 -12 -72 -47 -201 -107 -399 -59 -192 -61 -204 -44 -216
18 -14 40 -11 64 9 21 16 185 349 225 456 58 157 101 392 101 555 0 88 -13
364 -18 392 -2 10 -7 54 -12 98 -4 44 -8 82 -9 85 -1 3 -5 30 -9 60 -26 191
-74 403 -133 585 -39 122 -61 169 -93 203 -32 34 -43 28 -36 -20z m221 -883
c3 -27 12 -97 19 -155 8 -58 13 -193 13 -300 0 -221 -23 -379 -78 -545 -33
-99 -116 -281 -124 -273 -3 3 3 39 14 79 19 69 53 230 66 309 3 19 7 46 10 60
3 14 7 50 10 80 3 30 8 67 11 82 2 14 6 77 9 140 13 349 18 448 20 493 2 28 4
73 5 100 2 49 2 50 10 15 5 -19 12 -57 15 -85z"/>
</g>
</svg>
