<?xml version="1.0" encoding="UTF-8"?>
<svg width="1200pt" height="1200pt" version="1.1" viewBox="0 0 1200 1200" xmlns="http://www.w3.org/2000/svg">
 <g>
  <path d="m707.89 969.64 15.289 8.4844c-3.0586 6.1133-7.0039 11.742-11.707 16.707-5.0742 2.4102-8.4805 7.3398-8.9492 12.938-0.46875 5.5977 2.0703 11.02 6.6719 14.246 2.4883 2.9922 3.6484 6.875 3.2109 10.742-0.44141 3.8711-2.4414 7.3945-5.543 9.7539-12.383 10.98-12.707 12.508-5.4688 25.953v-0.003906c1.7578 2.9727 2.0039 6.6016 0.67187 9.7891-1.332 3.1836-4.0938 5.5508-7.4414 6.3867-10.035 4.7148-11.207 9.3867-4.3359 17.258 1.8867 4.2344 1.8164 9.082-0.19531 13.254-2.0117 4.1758-5.7578 7.25-10.242 8.4141-10.863 2-20.875 7.2227-28.734 14.988-0.82812 1.0742-1.9375 1.8984-3.207 2.3828-14.23-0.875-15.117 10.008-18.297 19.609-4.8711 14.703-9.4258 15.785-24.883 14.762h0.003906c-15.867-0.64062-31.758-0.066406-47.535 1.7109-4.3828 1.5703-9.2617-0.26953-11.516-4.3438-3.6797-7.3438-8.1797-14.242-13.414-20.57-7.0469-7.0742-14.539-13.691-22.43-19.809-4.9414-4.1914-9.9883-8.2656-15.168-12.16-2.5469-1.9688-5.3438-3.5977-8.3164-4.8359-3.2188-0.50391-6.3711-1.3711-9.3945-2.5898-1.0938-5.1992-0.33984-10.621 2.1328-15.324 9.6445-9.8164 2.2852-17.34-2.2578-23.453-2.3867-2.3125-3.707-5.5117-3.6445-8.8359 0.0625-3.3203 1.5039-6.4688 3.9766-8.6875 3.0781-3.1953 4.5039-7.6328 3.8594-12.02-0.64453-4.3906-3.2891-8.2305-7.1523-10.402-3.6484-3.6875-5.793-8.6016-6.0117-13.781 0.83203-4.0312 3.6445-7.3711 7.4805-8.8672 0.11328-2.457-0.11328-4.918-0.68359-7.3125-1.4609-5.3477-3.9102-10.371-7.2188-14.816-4.668-4.8516-7.293-8.6992-1.207-13.965 3.5391-3.6172 5.8008-8.2891 6.4414-13.305 0.64062-5.0195-0.375-10.109-2.8867-14.5-4.5156-10.125-8.4453-20.5-11.762-31.074-2-5.1562-4.7148-10.012-6.9844-15.059-5.875-13.074-11.613-26.215-17.527-39.266-7.8516-17.324-14.941-35.094-24.059-51.695v-0.003906c-6.625-10.207-14.039-19.879-22.172-28.93-3.7188-5.9922-8.0977-11.551-13.059-16.566-7.1875-5.7852-16.434-9.0078-23.789-14.625-28.941-22.105-60.52-40.113-81.805-72.297h-0.003907c-24.547-36.957-45.809-75.988-63.551-116.65-8.2617-21.23-12.734-43.742-13.219-66.516-1.6094-42.891 2.2969-85.812 11.633-127.71 6.9297-34.711 16.574-68.828 28.84-102.04 6.5742-18.129 21.844-33.18 30.461-50.875 9.4219-18.281 21.992-34.758 37.133-48.676 19.773-19.176 41.281-36.562 62.023-54.738 5.5391-4.8555 10.996-9.8086 16.523-14.68 0.78906-0.99219 1.8594-1.7188 3.0742-2.0859 13.211 1.043 21.566-9.6914 32.48-14.141 14.707-6.7773 29.773-12.758 45.125-17.91 19.324-5.5117 39.266-8.6172 58.961-12.625h0.003906c12.836-3.2852 25.879-5.6992 39.043-7.2227 18.07-1.1523 36.207-0.019532 54.316 0.12109 31.285 1.4062 62.207 7.2812 91.832 17.445 22.371 7.4492 44.008 16.961 64.621 28.414 20.16 10.449 38.285 24.754 58.73 34.543 34.398 16.469 56.898 45.844 82.789 71.547 24.062 24.926 44.328 53.254 60.156 84.074 21.148 39.016 38.445 79.43 37.246 125.64-0.77734 29.961-4.0156 59.969-4.0977 89.891-1.1523 25.555-7.3672 50.621-18.289 73.75-3.2266 7.7969-6.6211 15.574-10.602 23.023-9.0547 16.953-17.656 34.23-28 50.41h0.003906c-21.102 32.555-47.648 61.234-78.477 84.785-11.234 8.7344-21.254 19.055-31.926 28.539-18.395 16.336-38.098 31.422-54.91 49.234-13.5 13.805-24.672 29.707-33.082 47.086-10.023 24.711-18.672 49.953-25.906 75.617-0.78516 2.4102 0.6875 5.4453 0.039063 7.9453-0.30469 4.9062-2.1016 9.6055-5.1562 13.461-3.8203 2.0547-6.7812 5.4062-8.3516 9.4492-1.5703 4.0469-1.6445 8.5195-0.20703 12.613zm-173.42-680.74c2.0586 0.42969 4.0547 1.1172 5.9375 2.0508 11.395 7.5586 22.664 15.301 33.895 22.93l-0.46875-58.012c-17.461 2.8359-33.094 5.0664-48.602 8.0898h0.003906c-4.1797 1.4219-8.1367 3.4297-11.754 5.957 7.957 7.2109 14.355 13.012 20.75 18.805-5.25-2.9414-10.375-6.125-15.789-8.7539v0.003906c-3.7812-2.5547-8.1406-4.1328-12.684-4.5859-4.6562 4.1602-7.5547 9.9375-8.1133 16.156 1.543 6.5273 5.707 12.129 11.512 15.484 11.93 6.2422 24.398 11.402 37.25 15.422 9.6289 2.6016 19.406 4.6289 29.277 6.0703l1.9453-2.5547c-3.8984-4.3516-8.0117-8.5039-12.324-12.441-10.098-8.4219-20.535-16.438-30.836-24.621zm99.289-126.16-2.0508-0.69922-3.9688-0.28516-2.2656-1.6797c-4-3.043-8.5234-5.3242-13.344-6.7344-10.762-0.85156-21.57-0.87891-32.332-0.078125-14.898 0.65625-29.75 2.1094-44.496 4.3516-18.297 3.1289-36.145 8.2109-42.797 30.605 20.75 8.8711 41.926 17.922 63.098 26.977l-1.4062 3.125c-20.316-7.8516-40.633-15.703-61.781-23.875h0.003906c-0.35156 8.3164 3.1289 16.34 9.4492 21.762 18.375 16.5 43.031 19.207 63.977 29.84 4.3828 2.2266 9.8828 1.3789 9.7852-6.8555h0.003907c0.19141-4.3633 1.6758-8.5664 4.2656-12.082 4.207-3.2344 7.9141-7.0742 10.996-11.398 1.875-9.375 8.4219-6.2969 10.551-4.0195v0.003906c4.2031 4.9062 7.3555 10.621 9.2695 16.797 1.4531 6.957 8.0547 11.598 15.094 10.613 11.863-1.5 23.641-4.1992 35.367-6.8359 11.609-2.6094 24.945-18.82 22.375-28.895-3.1641-9.9453-7.1836-19.598-12.012-28.852-1.1602-0.96875-2.5898-1.5508-4.0938-1.6758-11.223-3.3906-22.453-6.7617-33.688-10.109zm113.47 76.578v0.003906c2.9648 4.1133 4.9688 8.8477 5.8594 13.844-1.1914 5.8594-6.6016 9.8906-12.559 9.3516-29.852 2.8633-57.934-5.7344-86.707-9.7305-12.516-1.7383-24.73-7.1172-37.234-0.41016-0.70703 4.707 0.50391 9.5039 3.3672 13.309 2.8594 3.8086 7.1289 6.3086 11.848 6.9375 4.1406 1.0547 7.8945 3.4727 12.039 4.4766h0.003906c18.039 4.0938 34.773 12.609 48.703 24.781 3.8281 2.9492 6.8086 6.8594 8.6328 11.332 1.8242 4.4766 2.4336 9.3555 1.7578 14.141-1.1367 4.082-3.4023 7.7578-6.5352 10.613-3.1328 2.8516-7.0117 4.7617-11.18 5.5117-6.5078 2.5547-13.414 4.0117-22.008 6.4883 17.078 5.2852 30.945 17.859 37.871 34.34 1.0859 1.6133 2.6406 2.8555 4.4531 3.5625 18.984 9.8164 38.09 19.406 57.004 29.352 10.746 5.6523 21.289 11.668 31.625 18.043 0.79688 2.3516 0.96484 4.8711 0.49219 7.3125l-22.16-5.2578 1.0352-3.3281 10.797 2.2148c-2.7773-3.3125-6.2539-5.9688-10.184-7.7695-17.598-8.9023-35.395-17.445-52.832-26.633-17.039-8.9805-16.887-9.2539-30.918 3.2344l5.9883 4.6953c-5.793 0.50391-10.98-2.418-15.613-1.5742-21.25 3.8555-42.344 8.7617-63.363 13.262-1.0273 19.641-0.54297 18.629 15.41 25.789v-0.007813c10.895 5.2539 20.996 12.016 30.004 20.086 3.4727 2.4258 5.7461 6.2148 6.25 10.422 0.50391 4.207-0.8125 8.4258-3.6172 11.602-2.082 1.8438-2.9062 4.7227-2.1172 7.3867 0.78906 2.668 3.0508 4.6328 5.8008 5.043 6.5898 2.7812 12.977 6.0508 19.316 9.3477 21.254 11.051 42.711 21.773 63.52 33.582h0.003906c6.8789 4.4062 12.926 9.9961 17.852 16.512 1.582 3.4219 1.4219 7.3906-0.42188 10.676-2.707 2.0234-5.8867 3.3125-9.2383 3.75 6.7812-10.449 6.9883-14.992-3.2656-20.789-31.672-17.906-63.883-34.891-95.977-52.07l0.003906-0.003906c-2.0195-1.0156-4.3672-1.1602-6.4961-0.40625-10.246 4.8516-20.301 10.133-30.879 15.5 1.793 0.75781 3.6719 1.2852 5.5977 1.5664 19.902 0.45312 39.387 5.8086 56.727 15.59 19.016 10.203 21.613 27.184 4.4102 41.211v-0.003907c-8.2031 5.5859-17.52 9.332-27.305 10.98-10.055 1.9258-20.219 3.2344-30.434 3.9219 11.191 5.5195 23.605 11.051 35.402 17.641 5.0117 2.9922 8.4141 8.0742 9.2734 13.844 0.85938 5.7734-0.91797 11.625-4.8438 15.945-7.4961 6.8945-15.465 13.254-23.855 19.031 9.3555 5.6641 18.773 10.754 27.523 16.789 19.141 13.203 38.117 26.656 56.699 40.609v0.003906c3.4023 2.7734 5.2305 7.0352 4.9062 11.41-2.4023 3.8086-6.2227 6.4961-10.613 7.4727-18.688 5.4609-36.172-0.81641-53.754-4.9336-8.0625-1.8867-15.691-4.9883-17.84 7.5898l-0.003906 0.003906c-0.75391 1.8711-2.0547 3.4688-3.7344 4.5938-12.715 10.941-25.504 21.797-38.574 32.934 2.2109 1.6602 4.5195 3.1836 6.9102 4.5664 8.4297 3.6758 15.383 10.07 19.75 18.16 4.3711 8.0938 5.9023 17.414 4.3516 26.477-2.6406 26.203-3.9961 52.492-6.0078 78.738h0.003906c-0.14844 4.3672-0.82812 8.7031-2.0273 12.906-1.5742 1.8789-3.5859 3.3398-5.8594 4.25-1.2383-1.2266-2.1406-2.7461-2.6211-4.418 1.9297-21.254 3.4727-42.559 6.4414-63.707 2.5078-17.883 4.9414-35.125-10.777-48.484l10.152 2.0156 1.7656-2.3359c-9.418-7.832-18.836-15.664-29.184-24.266l-0.48047 10.43 14.895 8.4688-1.7188 2.9375-13.164-5.918c-0.49219 10.664-1.1602 19.855-1.293 29.039-0.45312 30.855-0.46094 61.707-1.2383 92.562-0.17578 6.918 2.5312 7.7188 8.1758 7.4141 19.785-1.0586 39.605-1.1914 59.348-2.9141v-0.007813c13.301-1.4805 26.488-3.8086 39.492-6.9648 3.2734-1.043 5.9492-3.4297 7.3594-6.5625 6.0312-16.707 10.355-34.055 17.336-50.355 6.1953-14.785 14.016-28.84 23.316-41.898 9.168-11.27 19.262-21.758 30.176-31.348 12.195-11.91 24.504-23.73 37.207-35.09 12.086-10.809 25.059-20.625 37.07-31.512 14.016-12.703 27.34-26.172 41.102-39.16 7.6953-5.957 14.855-12.578 21.391-19.785 7.5898-11.113 14.371-22.758 20.285-34.844 7.3594-14.066 13.523-28.723 18.438-43.816 0.47656-2.1602 1.6523-4.1055 3.3477-5.5273 9.3711 0.19531 9.7148-7.75 11.727-13.219 4.8398-12.547 8.8945-25.383 12.137-38.438 3.1133-9.5156 3.832-19.652 2.0977-29.516-1.9297-6.3203-2.7109-12.934-2.3125-19.531 0.32812-8.207 0.38672-16.414 0.46875-24.617-0.52344-2.6016-0.59375-5.2695-0.21484-7.8945 1.5898-6.3789 0.82422-13.113-2.1602-18.965-0.69141-4.9531-0.70703-9.9766-0.042969-14.934 0.50391-2.5742 0.84375-5.1758 1.0156-7.7891-1.7305-17.996-3.7109-35.961-5.5781-53.938 0.12109-1.9727-0.007812-3.9492-0.38672-5.8867-6.1992-15.426-12.188-30.965-19.016-46.094-12.445-27.758-28.809-53.582-48.594-76.688-12.539-14.594-25.523-28.883-39.324-42.27-11.594-11.621-24.203-22.184-37.676-31.562-19.301-12.945-39.73-24.316-60.078-35.676-17.426-11.027-35.832-20.422-54.984-28.062-29.695-9.4805-59.914-17.238-90.5-23.238-25.555-4.6055-51.727-4.5781-77.27 0.078125-4.8828 0.74219-9.4453 4.4062-14.316 5.0352-15.668 2.0273-31.617 2.0312-47.082 5.1133-20.145 3.1289-39.879 8.4922-58.836 15.992-24.492 11.883-48.234 25.258-71.094 40.047-9.6562 6.125-18.645 13.242-26.816 21.242-9.3555 8.832-17.676 18.777-26.379 28.297-11.082 11.102-21.555 22.797-31.363 35.035-10.445 14.293-17.832 30.766-28.188 45.133h-0.003906c-9.3438 14.676-16.293 30.746-20.586 47.605-3.4727 10.68-6.2578 21.559-9.3477 32.352l-0.003906-0.003906c-4.2344 12.672-7.8203 25.551-10.738 38.586-2.6641 15.051-3.2656 30.402-4.5859 45.633-0.91016 10.492-1.5859 21-2.2461 31.508h-0.003906c-1.918 15.078-2.6641 30.281-2.2227 45.477 2.4531 19.762 6.168 39.352 11.117 58.645 2.1094 3.4844 5.0469 6.3906 8.5547 8.4609-0.54688 5.2773-0.13281 10.609 1.2266 15.734 5.7773 12.301 13.07 23.844 19.688 35.734 2.7188 5.8633 5.8242 11.535 9.3008 16.984 9.1914 12.246 19.316 23.777 28.566 35.98 8.2852 10.93 15.906 22.379 24.055 33.93l-4.3008 2.2305c2.3945 2.0742 4.1875 3.8164 6.1719 5.3164 14.664 11.09 29.312 22.195 44.098 33.129 2.8594 2.1133 6.3711 3.3438 9.4219 5.2344l-0.003907-0.003906c16.945 8.7109 31.684 21.164 43.102 36.418 8.0781 12.672 14.758 26.281 21.754 39.641 14.574 27.82 19.676 59.984 37.34 86.516 2.1328 4.707 6.4883 8.0234 11.594 8.8203 15.719 1.8867 31.363 4.2422 47.055 6.2852 26.219 3.4102 22.438 0.28516 23.57-19.879 1.2344-21.949 5.0781-43.836 6.7031-65.789v-0.003907c0-10.816-0.74609-21.617-2.2305-32.332 5.6484-4.1055 14.723-10.535 23.586-17.246 3.0859-1.9336 5.6367-4.6055 7.4258-7.7773 0.66406-3.0859 0.11719-6.3125-1.5234-9.0078-2.4922-0.023437-4.9688 0.33203-7.3516 1.0586-4.2422 1.2734-8.7109 1.5938-13.09 0.94531-15.695-5.7148-30.816-12.898-45.16-21.457-28.066-18.77-59.961-34.727-68.176-72.414-2.0039-5.3242-2.043-11.184-0.10547-16.531 4.5898-3.6641 10.602-5.0234 16.324-3.6914 20.711 5.3672 41.004 12.152 61.484 18.32l-0.003906-0.003906c7.4297 3.3086 15.355 5.3672 23.453 6.082 10.355-1.6445 20.508-4.3711 30.297-8.1289-2.668-1.7031-5.4844-3.1562-8.4141-4.3438-9.1992-2.6211-18.406-5.332-27.801-7.1992-12.191-2.4883-23.262-8.8281-31.574-18.086-2.8008-2.2539-4.5391-5.5664-4.8008-9.1484-0.26172-3.582 0.97266-7.1133 3.4141-9.75 6.8242-7.6016 15.012-13.988 22.797-21.07-5.1836-3.4219-11.648-7.2109-17.566-11.707-8.9961-6.8398-17.613-14.172-26.391-21.289l0.003906-0.003907c1.5859 0.042969 3.1523 0.375 4.6211 0.98047 11.133 7.5625 22.176 15.262 33.203 22.977 13.766 9.6289 16.668 9.4336 29.379-1.125-16.059-10.188-32.785-20.32-48.953-31.27v0.003907c-3.4961-2.4102-5.8711-6.1289-6.5898-10.312-0.71484-4.1875 0.28906-8.4844 2.7852-11.918 11.703-10.277 26.172-16.887 41.602-19.004 10.551-1.2852 21.094-2.7188 31.637-4.082-8.5039-5.125-17.59-9.2227-27.059-12.203-37.156-12.309-74.258-24.797-111.69-36.301h-0.003906c-10.641-2.0625-21.449-3.1367-32.289-3.207 1.7695 9.3008 4.582 18.371 8.3828 27.039 12.852 21.477 29.602 40.359 49.395 55.68 8.9844 6.8672 16.961 15.023 25.398 22.598v-0.003906c-0.91406 0.36328-1.9023 0.47656-2.875 0.33984-25.668-16.734-48.199-37.84-66.566-62.367-7.6602-11.184-17.133-21.766-16.473-37.172 0.30078-6.9648 2.6094-11.52 10.043-10.488 15.297 1.375 30.465 3.918 45.375 7.6055 31.34 9.4375 62.086 20.672 88.688 29.684-6.543-4.3555-17.293-10.727-27.133-18.266-12.098-9.2734-13.156-17.066-4.5781-30.016 4.875-7.3633 10.918-13.973 17.312-22.023v-0.003906c-11.27-5.1602-22.172-11.094-32.629-17.754-17.477-12.645-33.844-26.801-50.57-40.457-17.258-13.09-31.246-30-40.863-49.406-2.0586-4.0156-2.5234-8.6641-1.3008-13.008 3.2266-2.5273 7.2656-3.793 11.359-3.5586 3.6445-0.097656 7.2734 0.50391 10.691 1.7734 37.391 11.996 74.812 23.914 112.04 36.344v0.003906c12.473 5.9062 26.648 7.1328 39.945 3.457-3.6406-3.2695-7.6602-6.0898-11.977-8.3945-20.785-7.25-41.996-13.414-62.582-21.137-6.6211-2.2539-12.02-7.1367-14.926-13.5-2.9062-6.3594-3.0625-13.637-0.43359-20.117 2.1133-5.9883 4.5391-11.859 7.2734-17.586-6.1758-5.0859-13.301-10.875-20.34-16.762v-0.003906c-21.84-16.824-37.836-40.082-45.742-66.492-2.3867-8.7578 1.7148-12.879 10.723-10.434 11.426 3.1055 22.691 6.75 34.52 10.309v0.003906c2.3867-4.4648 5.1875-8.6953 8.3633-12.637 4.1641-3.9453 8.6875-7.4922 13.512-10.594 2.1445-1.9531 4.6836-3.4141 7.4492-4.293 15.055-2.457 30.129-5.1289 45.266-6.4531 23.449-2.0586 46.973-4.0195 70.426-4.2969 21.75 1.4453 42.465 9.8398 59.086 23.949 0.49609 0.10547 1.0078 0.074219 1.4844-0.10156l-2.6133-8.3828c2.1211 0.86719 4.0859 2.0781 5.8086 3.5938 15.152 23.781 33.613 45.289 54.824 63.875 3.3555 4.1758 6.207 8.7344 8.4961 13.578-3.6094-2.6484-7.0664-5.4922-10.355-8.5273-16.453-16.805-32.742-33.777-47.586-49.137 15.363 29.949-2.293 56.105-39.422 63.609l0.003906 0.003906c1.668 1.3086 3.543 2.3359 5.5469 3.043 25.188 3.3125 50.301 7.3438 75.645 9.3164 17.582 1.3672 19.41-1.8281 16.305-18.152zm-274.45 686.2c-1.3242 3.9492-0.8125 8.2852 1.3945 11.816 2.207 3.5352 5.8789 5.8945 10.008 6.4375 13.871 2.9531 27.891 5.1445 42 6.5586 23.16 1.8398 46.492 2.125 69.703 3.5586h0.003906c33.727 2.168 67.594-0.6875 100.48-8.4766 16.07-3.8203 16.062-3.8516 16.184-22.223v0.003907c-79.527 10.594-160.05 11.375-239.77 2.3242zm60.676-240.55c-13.887-5.4336-26.613-11.492-40.043-15.344-12.395-3.1094-25.004-5.2578-37.727-6.4219-2.8047 0.65625-5.207 2.4492-6.6367 4.9453 2.1484 11.254 6.2305 22.051 12.07 31.906 24.379 29.074 56.141 51.047 91.941 63.602 3.0469 1.8047 6.7344 2.1523 10.062 0.95703 3.3281-1.1992 5.9492-3.8164 7.1484-7.1445-4.8203-3.5508-9.4492-7.3477-13.875-11.375-10.535-9.8086-20.48-20.23-29.789-31.215-12.543-15.828-11.848-16.746 6.8477-29.91zm-48.562 310.41c-1.1953 13.332 0.84375 18.496 8.7539 20.113 14.168 2.8945 28.441 5.6133 42.852 7.1406 26.953 2.8555 53.961 6.0117 81.09 6.7578 22.02-0.027344 44.023-1.2578 65.91-3.6914 3.4453-0.28516 10.434-1.793 6.293-9.1406v-0.003906c-0.058594-1.5117 0.38281-3.0039 1.25-4.2461 4.3125-9.3008 2.375-11.949-8.0391-10.867-7.9688 0.82812-15.957 2.3516-23.902 2.3984-24.27 0.14062-48.531-0.042969-72.781-0.55859-18.953-0.41797-37.91-1.1133-56.777-2.5195-14.73-1.1055-29.32-3.4883-44.648-5.3828zm90.316-578.84c-0.13281-16.5-0.64844-32.016-0.20703-47.543l-0.003906 0.003906c0.46484-2.6211-0.24219-5.3125-1.9375-7.3633-1.6914-2.0547-4.1992-3.2617-6.8594-3.3008-18.887-2.8945-38.188-1.3086-56.348 4.6289-3.5547 0.46484-6.8633 2.082-9.4141 4.6016-2.5547 2.5195-4.2109 5.8047-4.7227 9.3555-0.85938 9.0977-1.8359 19.863 6.8398 24.488 21.559 11.492 41.266 32.355 70.234 15.84 0.76953-0.34766 1.582-0.58594 2.418-0.71094zm-89.035-23.535c-0.046875-5.6875-0.078125-8.6797-0.09375-11.672-0.066406-14.895 1.2383-17.848 15.215-23.457 11.719-4.7031 24.016-7.8477 35.926-11.641l0.003906 0.003906c-41.715-15.562-84.512-28.043-128.05-37.336 12.91 39.652 43.402 61.59 77 84.102zm126.03 282.92c12.602 6.5703 24.867 13.766 36.75 21.566 4.2383 4.8438 7.4883 10.469 9.5664 16.559 0.79297 2.6836 2.3359 5.0859 4.4492 6.9219 18.352 6.9375 38.043 9.6055 57.578 7.7969 3.375-1.0625 6.5703-2.6172 9.4883-4.6211-1.1328-3.168-2.707-6.1562-4.6836-8.8789-22.039-22.562-50.426-36.117-77.027-52.156v0.003906c-6.6016-1.9883-13.664-1.8164-20.16 0.48828-6.4961 2.3047-12.086 6.6211-15.961 12.32zm-128.22 296.41c38.562 1.9062 75.562 4.0117 112.61 5.4883 34.188 3.3672 68.672 2.0977 102.52-3.7734-0.65234-2.3672-0.98047-4.8125-0.96875-7.2695 1.1211-9.2031-2.7812-11.285-11.473-10.074h-0.003906c-19.309 3.3398-38.809 5.4609-58.387 6.3516-30.188 0.35156-60.375-1.1562-90.457-2.9648-18.027-1.082-35.863-4.2383-55.422-6.6641zm100.28-178.93c-23.434 10.844-24.188 8.1602-23.609 29.996-0.14453 1.668-0.40234 3.3242-0.76562 4.957-2.668 24.055-5.7383 48.086-7.8359 72.172-1.875 21.52-0.97266 21.43 19.184 22v-0.003907c3.7656 0.92969 7.7422-0.16406 10.5-2.8945 2.7539-2.7266 3.8906-6.6953 2.9961-10.469-0.13281-15.934 0.12109-31.883 0.054687-47.82-0.089844-22.039-0.33203-44.074-0.52734-67.938zm35.195-454.68v0.003906c1.7656 0.78125 3.6133 1.3711 5.5078 1.7656 20.258 1.6602 40.645-0.66797 60.008-6.8555 4.2461-0.87109 7.7188-3.918 9.1367-8.0117 1.418-4.0977 0.57422-8.6367-2.2227-11.949-4.1328-5.9453-9.582-10.859-15.922-14.355-18.215-8.3828-37.133-15.328-57.016-23.336zm-3.8086 192.4c-0.70703 15.668-1.2031 30.285-2.0977 44.895-0.83594 2.4297-0.17578 5.125 1.6875 6.8945 1.8594 1.7695 4.582 2.293 6.9688 1.3398 17.574-2.2852 35.281-3.6055 52.711-6.7969 4.3086-1.1562 8.1562-3.6172 11.004-7.0508 2.8516-3.4336 4.5664-7.668 4.9062-12.113 0.30469-3.4961-0.66406-6.9844-2.7266-9.8242-2.0625-2.8359-5.0781-4.8359-8.4961-5.6289-11.566-4.7109-22.871-10.082-34.664-14.168l-0.003906 0.003907c-5.9219-1.375-11.977-2.0977-18.059-2.1523l-0.42188 2.75 19.539 8.5195-1.2422 2.9102zm-30.727 55.863c-2.0664-18.27-3.9844-36.676-6.457-54.988-0.92188-2.5234-3.1094-4.3672-5.7539-4.8516-19.539-1.1797-39.035 2.9609-56.41 11.98-4.6484 1.5625-7.8906 5.7852-8.2031 10.68-0.30859 4.8945 2.3711 9.4922 6.7852 11.629 13.465 8.1289 27.574 15.27 41.699 22.277v0.003907c3.9883 3.0547 8.7266 4.9766 13.719 5.5508 4.9883 0.57422 10.043-0.21094 14.621-2.2812zm-112.16-400.37c-3.9922-1.4062-10-3.9648-16.277-5.6094-5.8164-1.5234-11.918-2.0703-17.895-3.0508 0.066406 6.6797 1.207 13.309 3.3711 19.629 14.023 24.961 33.672 46.305 57.391 62.336 2.5 1.0547 5.3008 1.1641 7.8789 0.30859 11.59-2.7617 23.102-5.8906 34.648-8.8555 1.9531-0.5 3.9414-0.83984 7.7812-1.6406-4.1406-1.6758-6.3555-2.3789-8.3867-3.4258-16.008-8.2656-32.383-15.938-47.812-25.145l-0.003906 0.003906c-9.9766-5.875-17.578-15.07-21.465-25.98-0.21094-2.8789 0.046875-5.7734 0.76953-8.5703zm218.82 201.34c-13.449-7.7461-26.289-15.562-39.551-22.625-8.2969-4.5859-17.02-8.3555-26.047-11.262-6.3984-1.9453-10.641 0.89062-9.832 9.25 0.82812 8.5664 0.066406 17.336 0.066406 26.016 0 6.9453 0.10156 13.891 0.15625 20.902h0.003906c1.5547 0.55469 3.1758 0.89453 4.8242 1.0078 15.875-1.5586 31.645-4.0234 47.234-7.3828 4.9688-0.19141 9.7773-1.7891 13.875-4.6055 4.0938-2.8125 7.3086-6.7344 9.2695-11.301zm-116.45 115.3c0.90234-9.9688 1.4023-17.059 2.2148-24.121v-0.003907c1.8125-6.6055 1.0117-13.656-2.2383-19.684-3.25-6.0312-8.6992-10.574-15.215-12.691-2.9531-1.418-5.7539-3.1328-8.3594-5.1133-11.812-7.2461-14.289-6.8516-24.203 4.2617l0.003907-0.003906c-2.5312 2.7227-4.8008 5.6758-6.7812 8.8203-2.4531 3.0586-3.4258 7.0469-2.6523 10.895 0.76953 3.8438 3.207 7.1484 6.6484 9.0234 15.957 9.4844 32.309 18.332 50.582 28.617zm-82.5 576.88c1.9961 8.1484 0.70703 15.887 10.324 16.418 12.254 0.67578 24.508 1.3867 36.77 2.0312 17.906 0.9375 35.801 2.7578 53.734 2.5234 27.477-0.35938 54.98-2.1484 83.434-3.3711l-0.75-11.648c-31.297 1.3438-61.738 4.418-91.914 3.4531-30.027-0.95703-59.789-5.9648-91.598-9.4062zm47.141-469.83c-4.6758 1.8242-9.125 4.1875-13.254 7.0391-16.434 14.348-14 21.273 1.7422 28.57l0.003906 0.003906c11.215 5.5078 22.949 9.8945 35.031 13.094 21.211 5.0781 21.258 9.3633 21.066-15.781 0.0625-0.66797 0.16406-1.332 0.30859-1.9883 0.80078-2.8438 0.41016-5.8945-1.0781-8.4453-1.4883-2.5547-3.9531-4.3945-6.8242-5.0977-9.9453-4.332-19.656-9.1758-29.094-14.52-2.582-1.1055-5.2188-2.0664-7.9023-2.875zm97.25 40.758c7.5859-4.1758 14.281-7.3789 20.484-11.371 14.543-9.3711 14.051-17.047 1.1836-27.301-11.941-9.5156-26.828-7.9961-40.102-12.223h-0.003906c-2.9883 0.80859-5.418 2.9883-6.5391 5.8711-3.8984 29.016-2.0234 32.301 23.523 44.59v0.003907c0.46484 0.19531 0.95313 0.33984 1.4492 0.42969zm-57.672 106.57v0.003906c5.957-13.383 7.7305-28.254 5.0898-42.664-0.33203-4.375-2.3516-8.4531-5.6367-11.363-9.082-5.3711-18.949-9.2969-29.238-11.629-6.8203 0.30469-13.371 2.7656-18.703 7.0312-0.078125 4.7305 1.4102 9.3516 4.2305 13.148 13.699 14.922 28.188 29.121 44.258 45.477zm-98.891 224.45 0.003906 3.6172c7.6211 1.0195 15.211 2.2695 22.867 3.0156 25.672 2.4922 51.285 5.8086 77.07 6.9023 25.453 1.082 51.086 0 76.645-0.4375 12.086 0.19141 24.168-0.51562 36.145-2.1172 4.1445 0.15625 8.2344-0.95312 11.727-3.1836 3.4922-2.2305 6.2227-5.4727 7.8281-9.293-13.066 2.8984-26.293 5.0312-39.609 6.3828-17.797 0.81641-35.641-1.6602-53.418-0.66016-45.16 2.5352-89.41-4.957-134.21-6.1055l0.003906-0.003907c-1.7852 0.32422-3.4961 0.96094-5.0586 1.8867zm2.2148 81.703c13.137 17.555 188.56 23.793 209.52 8.8867-1.1328-1.1914-2.5352-2.0898-4.0898-2.625-68.543 2.0781-137.14-0.015626-205.43-6.2617zm9.9297-21.258-2.207 2.7109v-0.003906c2.3008 1.6836 4.8281 3.0273 7.5078 4 18.09 4.4336 36.395 7.9375 54.848 10.496 20.57 1.7969 41.227 2.4062 61.871 1.832 23.957-0.30469 47.941-1.8906 72.473-2.9453 1.8984-6.5352-2.3359-7.2188-8.1992-6.8828l-0.003907-0.003907c-19.32 2.7695-38.922 2.9688-58.297 0.59375-3.8828-0.73828-7.8203-1.1758-11.77-1.3125-19.191-0.97266-38.438-1.4453-57.582-2.8398-19.598-1.4297-39.098-3.7266-58.641-5.6484zm1.0195 63.215-0.53516 3.4062c6.5352 0.98438 13.023 2.3477 19.609 2.8789 24.477 1.9805 48.941 4.2461 73.496 5.3438 27.512 1.2266 55.105 1.5664 82.684 1.7109l0.003906-0.003906c2.7305 0.55859 5.5703-0.12109 7.7461-1.8633 2.1797-1.7422 3.4688-4.3633 3.5234-7.1523zm90.117-843.09c-0.36719 3.1719-0.71875 4.8125-0.71875 6.4375 0.007812 11.332 0.91797 22.707-0.078126 33.98-1.0234 5.1797-0.046874 10.555 2.7305 15.043 2.7773 4.4883 7.1523 7.7617 12.242 9.1562 9.5977 3.7773 12.574 2.5664 12.414-8.2578-1.0859-10.902-1.2969-21.871-0.63281-32.809 1.3242-4.1055 0.75391-8.5859-1.5547-12.234-2.3047-3.6445-6.1133-6.0781-10.391-6.6406-4.3164-1.2578-8.5352-2.8359-14.012-4.6758zm119.75 766.28v-0.003906c-14.926 6.2695-30.934 9.5508-47.125 9.6562-38.531 3.4805-76.125-3.0703-114.08-5.7383-5.8867-0.41406-11.746-1.3047-17.555-2.2852-15.191-2.5664-30.352-5.3086-45.523-7.9766l-1.6211 3.1641 0.003907-0.003906c3.332 2.6289 7.0977 4.6562 11.125 5.9961 22.219 3.0859 44.484 6.1016 66.871 7.9531 22.469 1.8594 45.09 2.4727 67.664 3.3555 17.875 0.69922 35.777 1.5781 53.68 1.1367 6.9883-0.69922 13.758-2.8203 19.891-6.2422 2.8477-2.4883 5.125-5.5625 6.6719-9.0156zm-119.18-671.34c1.3711 1.6445 2.418 3.5352 3.0898 5.5664-7.7461 10.43-3.0078 21.738-3.1641 32.449-0.29688 20.426-4.3789 19.586 20.312 18.102h0.003906c1.2188-0.40234 2.3711-0.98438 3.4141-1.7344l-0.46875-58.262zm22.133 405.75c15.703-5.4336 29.164-15.914 38.289-29.805 4.3906-5.8242 5.0625-10.977-4.0781-12.914-9.8438-2.0859-19.504-4.9102-31.102-7.8906-1.0586 17.199-2.0547 33.449-3.1094 50.609zm-96.312 356.48-0.66016 2.6172c30.277 19.918 66.324 9.3359 99.582 13.203 12.297 0.21875 24.586-0.82422 36.676-3.1055l-0.18359-2.3789zm75.703-594.12c2.1055 18.645 4.6797 34.688 5.4609 50.879 0.46484 9.668 3.4883 12.602 15.281 8.4648-0.125-15.285 0.023438-31.273-0.57031-47.211l0.003906 0.003906c0.26953-4.2812-1.2773-8.4766-4.2617-11.559-5.2227-1.1562-10.617-1.3516-15.914-0.57812zm31.66-73.004c1.0977 8.4531-5.3633 17.926 4.2422 24.125 7.5117 4.6406 15.375 8.6836 23.52 12.09 3.0586 1.1094 6.3672 1.332 9.5469 0.64062 2.5508-4.9297 3.4023-10.559 2.4297-16.023-9.5625-12.422-24.082-20.035-39.738-20.832zm-10.719 58.547c5.3047-30.422 0.98828-40.191-21.055-47.645l-0.003906 0.003906c-0.40625 0.50391-0.70313 1.0859-0.875 1.7109-0.078126 9.7148 0.60937 19.469-0.28516 29.133-1.1914 12.91 4.168 19.434 22.219 16.797zm-23.832 114.75 3.2461-1.7266v0.003906c-0.40234-8.2188-2.6445-16.238-6.5586-23.477-5.7891-6.0234-23.293 0.03125-30.438 8 11.344 5.7812 22.547 11.492 33.75 17.203zm66.262 91.52c-8.2617-14.281-21.426-25.082-37.043-30.398-1.0078 4.625-1.6562 9.3242-1.9414 14.047-0.0625 2.7383 1.1523 5.3477 3.2812 7.0664 10.891 3.3242 22.051 5.8438 35.703 9.2852zm-5.1953-219.8 0.56641-3.1602-28.016-14.504 0.23047 28.336c10.129-3.9727 18.672-7.3242 27.219-10.672zm-47.562 210.29-2.9102 1.4492c-0.93359 16.531-2.1328 33.066-2.5781 49.594l0.003906 0.003906c0.70703 3.5547 2.1172 6.9336 4.1484 9.9336l3.0234-1.0586c0.65234-17.262 1.4766-34.527 1.7773-51.781-0.60156-2.918-1.7812-5.6836-3.4648-8.1406zm10.152-240.11 2.4531-18.848c-7.8047-1.9844-15.43-3.9258-23.363-5.9414-1.7305 13.164-1.7305 13.164 20.91 24.789zm-16.48 133.73c6.3398 10.453-5.5586 25.027 10.074 31.992 6.7227-19.938 3.6445-32.844-10.074-31.992zm16.879-179.46c-19.387-2.457-22.359-0.44141-21.059 13.77l21.191 2.582zm-11.609 213.67-1.9883 2.6289 0.22656 28c12.512-5.2422 9.0391-14.66 8.8828-22.113h-0.003906c-1.5703-3.4219-4.0273-6.3633-7.1172-8.5156zm-13.855 46.336-23.391 5.2227-0.089844 2.1211c8.0273 2.8672 16.055 5.7383 25.008 8.9375-0.042969-5.457-0.042969-9.3945-0.14453-13.328h0.003906c-0.32812-1.043-0.79297-2.0352-1.3867-2.9531zm19.211 21.684c2.3633-22.766 2.3633-22.766-8.3711-23.648-3.5742 16.012-1.8242 21.387 8.375 23.648zm81.664-327.24c-9.457-12.934-24.113-21.062-40.094-22.242zm-68.957 790.23 2.6328 1.2852c3.2539-5.4883 6.0938-11.215 8.4883-17.129-0.45312-2.9844-1.7148-5.7852-3.6484-8.1016-2.9531 1.6914-5.4492 4.0781-7.2656 6.9531-0.64062 5.6445-0.71094 11.336-0.20703 16.992zm14.469-511.63 0.18359-2.6289-15.57-8.5703 0.125 15.633zm-34.75 182.76 2.375 0.12109-0.28906-35.738-2.375 0.078125zm10.875-593.99 1.0703-4.1328c-4.6875-2.0117-9.5156-3.668-14.453-4.9609-2.3164 0.76172-4.2734 2.3516-5.4883 4.4688 0.33984 1.6953 1.4023 3.1641 2.9102 4.0195 5.2617 0.59375 10.633 0.46875 15.965 0.60547zm385.47 97.488-3.0977 0.71875c2.2812 11.695 4.5625 23.391 6.8438 35.09l3.2383-0.75zm-434.28 96.332c6.4023 3.9102 12.805 7.8203 20.707 12.645-1.1797-16.809-14.523-9.0742-20.707-12.645zm16.418 711.62c4.8906-0.91406 8.457-1.5 11.992-2.2656 3.2109-0.69531 6.3828-1.5898 9.5742-2.3984l-0.29688-1.4453-26.008-0.53906zm22.191-895.34-0.039063 4.0938 15.754 5.4492v-0.003906c-0.71094-3.7695-2.2656-7.332-4.5391-10.418-3.75-0.34766-7.5273-0.046875-11.176 0.87891zm-0.058594 622.54-1.7305-0.050782 0.28516 35.195 1.7305-0.074219z"/>
  <path d="m633.76 162.75-2.0508-0.69922z"/>
  <path d="m627.74 161.76-2.2656-1.6797z"/>
  <path d="m309.68 243.41c-12.199 8.3867-12.844 21.289-15.977 33.051-4.1211 12.332-7.1914 24.988-9.1758 37.836-2.3867 27.102-3.7773 54.34-3.7344 81.457 0.23047 16.562 2.1172 33.059 5.6367 49.246 6.457 31.414 14.004 62.586 21.781 93.664v-0.003907c3.7773 15.25 8.4453 30.262 13.98 44.965 7.3438 19.363 15.402 38.434 24.176 57.203 8.3008 17.773 17.996 34.855 26.719 52.426 0.55469 2.7617 0.52344 5.6055-0.097656 8.3516-2.6523-0.42188-5.2227-1.2617-7.6133-2.4922-15.812-12.195-29.242-27.199-39.617-44.262-8.4688-13.426-16.746-26.977-24.824-40.656-1.7227-3.4141-3.1094-6.9844-4.1484-10.664-2.043-7.5703-4.6758-14.969-7.8789-22.125-12.918-25.566-21.391-53.145-25.066-81.551-3.0234-18.227-5.7812-36.508-8.2734-54.84-1.1992-7.5703-1.6289-15.238-1.2891-22.895 1.8203-26.633 2.8477-53.414 6.8633-79.82v-0.003907c2.5117-25.98 8.7695-51.457 18.578-75.648 3.9727-8.5078 7.2734-17.32 11.457-25.723 4.9297-9.9102 9.3945-9.3906 18.504 2.4844zm37.816 427.18 2.2812-1.3516c-2.4922-7.0508-4.5742-14.297-7.5586-21.117v-0.003906c-10.023-19.809-18.984-40.145-26.836-60.914-12.402-39.402-23.805-79.309-32.508-119.78-5.5547-29.293-9.0312-58.945-10.398-88.734-0.32422-17.617 0.35547-35.238 2.0391-52.777-11.121 35.863-15.004 73.582-11.426 110.96 2.6406 58.27 17.59 115.32 43.863 167.4 11.785 23.031 26.926 44.262 40.543 66.309zm-72.98-362.19 3.543 0.28906 4.0703-20.977-3.4258-0.52344c-1.3984 7.0703-2.793 14.141-4.1875 21.211z"/>
  <path d="m858.49 241.48c4.3828 3.9062 8.0703 8.5273 10.91 13.668 8.7227 23.086 15.992 46.695 21.77 70.688 12.504 57.816 18.605 116.83 18.195 175.98-1.0977 15.668-3.5625 31.207-7.375 46.441-1.9688 11.516-4.8906 22.852-8.7344 33.887-5.4258 14.402-12.406 28.285-19.066 42.234-5.3438 11.199-11.094 22.223-16.918 33.191-1.2773 2.7891-3.3086 5.1641-5.8594 6.8633-2.7773 1.6211-6.0977 2.0195-9.1758 1.0977-1.7461-2.4805-2.2383-5.6328-1.3281-8.5273 7.7227-26.41 17.039-52.469 23.434-79.141 5.3672-22.797 9.043-45.957 10.988-69.297 2.8789-33.145 4.0352-66.402 5.0391-99.609-0.125-12.629-1.0312-25.234-2.7227-37.75-1.7773-18.699-3.3281-37.453-5.9961-56.004-2.043-10.652-4.6211-21.195-7.7305-31.586-2.2188-8.8867-4.5156-17.758-6.5547-26.691-1.0312-4.5273-1.5625-9.1836-2.3203-13.785zm31.508 134.37c-1.6367 39.156-3.6641 81.508-5.1055 123.86-3.375 42.672-11.184 84.875-23.297 125.93 48.992-81.488 43.121-166.96 28.402-249.79z"/>
 </g>
</svg>
